<?xml version="1.0" encoding="utf-8"?>
<!-- Generator: Adobe Illustrator 18.1.1, SVG Export Plug-In . SVG Version: 6.00 Build 0)  -->
<svg version="1.1" id="Layer_1" xmlns="http://www.w3.org/2000/svg" xmlns:xlink="http://www.w3.org/1999/xlink" x="0px" y="0px"
	 viewBox="0 0 480 800" enable-background="new 0 0 480 800" xml:space="preserve">
<linearGradient id="SVGID_1_" gradientUnits="userSpaceOnUse" x1="56.2783" y1="458.8512" x2="417.2392" y2="334.5624">
	<stop  offset="0" style="stop-color:#42A523"/>
	<stop  offset="1" style="stop-color:#75CD42"/>
</linearGradient>
<path fill="url(#SVGID_1_)" d="M301.2,274.2c-1.9,1.9-4.3,2.9-7,2.9s-5-1-7.2-2.9c-1.9-1.9-2.9-4.3-2.9-7.2c0-2.6,1-5,2.9-7
	c1.9-1.9,4.3-2.9,7.2-2.9c2.6,0,5,1,7,2.9c1.9,1.9,2.9,4.3,2.9,7C304.1,269.9,303.1,272.3,301.2,274.2 M192.7,274.2
	c-1.9,1.9-4.3,2.9-7.2,2.9c-2.6,0-5-1-7-2.9c-1.9-1.9-2.9-4.3-2.9-7.2c0-2.6,1-5,2.9-7s4.3-2.9,7-2.9c2.6,0,5,1,7.2,2.9
	c1.9,1.9,2.9,4.3,2.9,7C195.6,269.9,194.6,272.3,192.7,274.2z M298.6,225l18.2-33.8c1.2-2.2,0.7-3.8-1.2-5c-2.2-1-3.8-0.5-5,1.4
	l-18.5,34.1c-16.3-7.2-33.6-10.8-51.8-10.8s-35.5,3.6-51.8,10.8l-18.5-34.1c-1.2-2.2-2.9-2.6-5-1.4s-2.4,2.9-1.2,5l18.2,33.8
	c-18.5,9.4-33.4,22.6-44.4,39.6S121,300.2,121,320.1h238.3c0-20.2-5.5-38.6-16.6-55.4C331.4,247.8,316.8,234.6,298.6,225z
	 M121.7,501c0,7.9,2.6,14.6,8.2,20.2c5.5,5.5,12.2,8.2,20.2,8.2h19l0.2,58.6c0,7.4,2.6,13.7,7.7,18.7c5,5,11.3,7.7,18.5,7.7
	c7.4,0,13.7-2.6,18.7-7.7c5-5,7.7-11.5,7.7-18.7v-58.6h35.5v58.6c0,7.4,2.6,13.7,7.7,18.7c5,5,11.5,7.7,18.7,7.7
	c7.4,0,13.7-2.6,18.7-7.7s7.7-11.5,7.7-18.7v-58.6h19.2c7.7,0,14.4-2.6,19.9-8.2c5.5-5.5,8.2-12.2,8.2-20.2V329.4H121.7V501z
	 M394.8,324.6c-7.2,0-13.4,2.6-18.5,7.7c-5,5-7.7,11.3-7.7,18.7v110.6c0,7.4,2.6,13.7,7.7,18.7c5,5,11.3,7.7,18.5,7.7
	c7.4,0,13.7-2.6,18.7-7.7c5-5,7.7-11.5,7.7-18.7V350.8c0-7.4-2.6-13.7-7.7-18.7C408.5,327,402.2,324.6,394.8,324.6z M85.2,324.6
	c-7.4,0-13.7,2.6-18.7,7.7c-5,5-7.7,11.3-7.7,18.5v110.6c0,7.4,2.6,13.7,7.7,18.7c5,5,11.5,7.7,18.7,7.7c7.4,0,13.7-2.6,18.7-7.7
	c5-5,7.7-11.5,7.7-18.7V350.8c0-7.2-2.6-13.4-7.7-18.5C98.6,327,92.4,324.6,85.2,324.6z"/>
</svg>
