<?xml version="1.0" encoding="utf-8"?>
<!-- Generator: Adobe Illustrator 18.1.1, SVG Export Plug-In . SVG Version: 6.00 Build 0)  -->
<svg version="1.1" id="Layer_1" xmlns="http://www.w3.org/2000/svg" xmlns:xlink="http://www.w3.org/1999/xlink" x="0px" y="0px"
	 viewBox="0 0 200 200" enable-background="new 0 0 200 200" xml:space="preserve">
<g>
	<defs>
		<path id="SVGID_1_" d="M125.5,47.6c-0.8,0.8-1.8,1.2-2.9,1.2c-1.1,0-2.1-0.4-3-1.2c-0.8-0.8-1.2-1.8-1.2-3c0-1.1,0.4-2.1,1.2-2.9
			c0.8-0.8,1.8-1.2,3-1.2c1.1,0,2.1,0.4,2.9,1.2c0.8,0.8,1.2,1.8,1.2,2.9C126.7,45.8,126.3,46.8,125.5,47.6 M80.3,47.6
			c-0.8,0.8-1.8,1.2-3,1.2c-1.1,0-2.1-0.4-2.9-1.2c-0.8-0.8-1.2-1.8-1.2-3c0-1.1,0.4-2.1,1.2-2.9c0.8-0.8,1.8-1.2,2.9-1.2
			c1.1,0,2.1,0.4,3,1.2c0.8,0.8,1.2,1.8,1.2,2.9C81.5,45.8,81.1,46.8,80.3,47.6z M124.4,27.1l7.6-14.1c0.5-0.9,0.3-1.6-0.5-2.1
			c-0.9-0.4-1.6-0.2-2.1,0.6l-7.7,14.2c-6.8-3-14-4.5-21.6-4.5c-7.6,0-14.8,1.5-21.6,4.5l-7.7-14.2c-0.5-0.9-1.2-1.1-2.1-0.6
			c-0.9,0.5-1,1.2-0.5,2.1l7.6,14.1c-7.7,3.9-13.9,9.4-18.5,16.5c-4.6,7.1-6.9,14.8-6.9,23.1h99.3c0-8.4-2.3-16.1-6.9-23.1
			C138.1,36.6,132,31.1,124.4,27.1z M50.7,142.1c0,3.3,1.1,6.1,3.4,8.4c2.3,2.3,5.1,3.4,8.4,3.4h7.9l0.1,24.4c0,3.1,1.1,5.7,3.2,7.8
			c2.1,2.1,4.7,3.2,7.7,3.2c3.1,0,5.7-1.1,7.8-3.2c2.1-2.1,3.2-4.8,3.2-7.8v-24.4h14.8v24.4c0,3.1,1.1,5.7,3.2,7.8
			c2.1,2.1,4.8,3.2,7.8,3.2c3.1,0,5.7-1.1,7.8-3.2c2.1-2.1,3.2-4.8,3.2-7.8v-24.4h8c3.2,0,6-1.1,8.3-3.4c2.3-2.3,3.4-5.1,3.4-8.4
			l0-71.5H50.7V142.1z M164.5,68.6c-3,0-5.6,1.1-7.7,3.2c-2.1,2.1-3.2,4.7-3.2,7.8v46.1c0,3.1,1.1,5.7,3.2,7.8
			c2.1,2.1,4.7,3.2,7.7,3.2c3.1,0,5.7-1.1,7.8-3.2c2.1-2.1,3.2-4.8,3.2-7.8V79.5c0-3.1-1.1-5.7-3.2-7.8
			C170.2,69.6,167.6,68.6,164.5,68.6z M35.5,68.6c-3.1,0-5.7,1.1-7.8,3.2c-2.1,2.1-3.2,4.7-3.2,7.7v46.1c0,3.1,1.1,5.7,3.2,7.8
			c2.1,2.1,4.8,3.2,7.8,3.2c3.1,0,5.7-1.1,7.8-3.2c2.1-2.1,3.2-4.8,3.2-7.8V79.5c0-3-1.1-5.6-3.2-7.7C41.1,69.6,38.5,68.6,35.5,68.6
			z"/>
	</defs>
	<clipPath id="SVGID_2_">
		<use xlink:href="#SVGID_1_"  overflow="visible"/>
	</clipPath>
	<linearGradient id="SVGID_3_" gradientUnits="userSpaceOnUse" x1="225.2973" y1="-25.271" x2="58.2373" y2="141.6089">
		<stop  offset="0" style="stop-color:#B0DE4A"/>
		<stop  offset="1" style="stop-color:#57B43E"/>
	</linearGradient>
	<rect x="24.5" y="10.5" clip-path="url(#SVGID_2_)" fill="url(#SVGID_3_)" width="151.1" height="178.8"/>
</g>
</svg>
