<?xml version="1.0" encoding="utf-8"?>
<!-- Generator: Adobe Illustrator 18.1.1, SVG Export Plug-In . SVG Version: 6.00 Build 0)  -->
<svg version="1.1" id="Layer_1" xmlns="http://www.w3.org/2000/svg" xmlns:xlink="http://www.w3.org/1999/xlink" x="0px" y="0px"
	 viewBox="0 0 258 258" enable-background="new 0 0 258 258" xml:space="preserve">
<g>
	<defs>
		<path id="SVGID_1_" d="M257.8,129C257.8,57.9,200.1,0.2,129,0.2S0.2,57.9,0.2,129S57.9,257.8,129,257.8S257.8,200.1,257.8,129"/>
	</defs>
	<clipPath id="SVGID_2_">
		<use xlink:href="#SVGID_1_"  overflow="visible"/>
	</clipPath>
	<linearGradient id="SVGID_3_" gradientUnits="userSpaceOnUse" x1="59.1953" y1="204.8747" x2="223.0653" y2="26.7547">
		<stop  offset="0" style="stop-color:#3B5998"/>
		<stop  offset="1" style="stop-color:#6797BA"/>
	</linearGradient>
	<rect x="0.2" y="0.2" clip-path="url(#SVGID_2_)" fill="url(#SVGID_3_)" width="257.6" height="257.6"/>
</g>
<path fill-rule="evenodd" clip-rule="evenodd" fill="#FFFFFF" d="M161.4,134h-23v84.2h-34.8V134H87v-29.6h16.6V85.3
	c0-13.7,6.5-35.1,35.1-35.1l25.8,0.1V79h-18.7c-3.1,0-7.4,1.5-7.4,8.1v17.4h26L161.4,134z"/>
</svg>
