<?xml version="1.0" encoding="utf-8"?>
<!-- Generator: Adobe Illustrator 18.1.1, SVG Export Plug-In . SVG Version: 6.00 Build 0)  -->
<svg version="1.1" id="Layer_1" xmlns="http://www.w3.org/2000/svg" xmlns:xlink="http://www.w3.org/1999/xlink" x="0px" y="0px"
	 viewBox="0 0 258 258" enable-background="new 0 0 258 258" xml:space="preserve">
<g>
	<defs>
		<path id="SVGID_1_" d="M206.4,167.5c0,21.7-17.6,39.3-39.3,39.3H90.5c-21.7,0-39.3-17.6-39.3-39.3V90.9
			c0-21.7,17.6-39.3,39.3-39.3h76.7c21.7,0,39.3,17.6,39.3,39.3V167.5z M129,106.2c-12.7,0-23.2,10.5-23.2,23.2
			c0,12.7,10.5,23.2,23.2,23.2c12.7,0,23.2-10.5,23.2-23.2C151.8,116.3,141.3,106.2,129,106.2z M170.1,97.6c-5.2,0-9.3-4.1-9.3-9.3
			c0-5.2,4.1-9.3,9.3-9.3c5.2,0,9.3,4.1,9.3,9.3C179.5,93.1,175.4,97.6,170.1,97.6z M129,169c-22.1,0-40-17.9-40-40s17.9-40,40-40
			c22.1,0,40,17.9,40,40C168.6,151.1,150.7,169,129,169z M167.1,68.4H90.5c-12.3,0-22.1,10.1-22.1,22.1v76.7
			c0,12.3,10.1,22.1,22.1,22.1h76.7c12.3,0,22.1-10.1,22.1-22.1V90.9C189.6,78.5,179.5,68.4,167.1,68.4z M129,0C57.6,0,0,57.6,0,129
			s57.6,129,129,129s129-57.6,129-129S200,0,129,0z"/>
	</defs>
	<clipPath id="SVGID_2_">
		<use xlink:href="#SVGID_1_"  overflow="visible"/>
	</clipPath>
	<linearGradient id="SVGID_3_" gradientUnits="userSpaceOnUse" x1="38.04" y1="219.9598" x2="266.63" y2="-8.6302">
		<stop  offset="0" style="stop-color:#FF751A"/>
		<stop  offset="0.25" style="stop-color:#DB4078"/>
		<stop  offset="0.51" style="stop-color:#DB4E86"/>
		<stop  offset="1" style="stop-color:#D98EC5"/>
	</linearGradient>
	<rect clip-path="url(#SVGID_2_)" fill="url(#SVGID_3_)" width="258" height="258"/>
</g>
<path fill-rule="evenodd" clip-rule="evenodd" fill="#F1F2F2" d="M179.5,87.9c0-5.2-4.2-9.3-9.3-9.3c-5.2,0-9.3,4.2-9.3,9.3
	c0,5.2,4.2,9.3,9.3,9.3C175.3,97.2,179.5,93,179.5,87.9"/>
<path fill-rule="evenodd" clip-rule="evenodd" fill="#F1F2F2" d="M189.6,167.1c0,12.3-10.1,22.1-22.1,22.1h-77
	c-12.3,0-22.1-10.1-22.1-22.1V90.5c0-12.3,10.1-22.1,22.1-22.1h76.7c12.3,0,22.1,10.1,22.1,22.1v76.7H189.6z M167.1,51.2H90.5
	c-21.7,0-38.9,17.6-38.9,39.3v76.7c0,21.7,17.6,39.3,38.9,39.3h76.7c21.7,0,39.3-17.6,39.3-39.3V90.5
	C206.4,68.8,188.8,51.2,167.1,51.2z"/>
<path fill-rule="evenodd" clip-rule="evenodd" fill="#F1F2F2" d="M128.6,151.8c-12.7,0-23.2-10.5-23.2-23.2
	c0-12.7,10.5-23.2,23.2-23.2c12.7,0,23.2,10.5,23.2,23.2C151.8,141.3,141.3,151.8,128.6,151.8 M128.6,89c-22.1,0-40,17.9-40,40
	s17.9,40,40,40s40-17.9,40-40S150.7,89,128.6,89z"/>
</svg>
