<?xml version="1.0" encoding="utf-8"?>
<!-- Generator: Adobe Illustrator 18.1.1, SVG Export Plug-In . SVG Version: 6.00 Build 0)  -->
<svg version="1.1" id="Layer_1" xmlns="http://www.w3.org/2000/svg" xmlns:xlink="http://www.w3.org/1999/xlink" x="0px" y="0px"
	 viewBox="0 0 64 64" enable-background="new 0 0 64 64" xml:space="preserve">
<g>
	<g>
		<circle fill="#FFFFFF" cx="23.7" cy="34.9" r="2.2"/>
		<circle fill="#FFFFFF" cx="40.3" cy="34.9" r="2.2"/>
	</g>
	<g>
		<path fill="#FFFFFF" d="M42.6,25.4c-1.1-0.4-1.7-1.7-1.3-2.8l2.1-5.6c0.4-1.1,1.7-1.7,2.8-1.3c1.1,0.4,1.7,1.7,1.3,2.8l-2.1,5.6
			C45,25.2,43.8,25.8,42.6,25.4z"/>
		<path fill="#FFFFFF" d="M21.4,25.4c1.1-0.4,1.7-1.7,1.3-2.8L20.5,17c-0.4-1.1-1.7-1.7-2.8-1.3c-1.1,0.4-1.7,1.7-1.3,2.8l2.1,5.6
			C19,25.2,20.2,25.8,21.4,25.4z"/>
	</g>
	<path fill="#FFFFFF" d="M50.5,21.4H13.5c-3.5,0-6.3,2.8-6.3,6.3v14.5c0,3.5,2.8,6.3,6.3,6.3h36.9c3.5,0,6.3-2.8,6.3-6.3V27.7
		C56.7,24.2,53.9,21.4,50.5,21.4z M52.3,42.2c0,1-0.8,1.9-1.9,1.9H13.5c-1,0-1.9-0.8-1.9-1.9V27.7c0-1,0.8-1.9,1.9-1.9h36.9
		c1,0,1.9,0.8,1.9,1.9V42.2z"/>
</g>
</svg>
