<?xml version="1.0" encoding="utf-8"?>
<!-- Generator: Adobe Illustrator 18.1.1, SVG Export Plug-In . SVG Version: 6.00 Build 0)  -->
<svg version="1.1" id="Layer_1" xmlns="http://www.w3.org/2000/svg" xmlns:xlink="http://www.w3.org/1999/xlink" x="0px" y="0px"
	 viewBox="0 0 64 64" enable-background="new 0 0 64 64" xml:space="preserve">
<g>
	<g>
		<path fill="#FFFFFF" d="M16.6,45.5c-0.9,0-1.7-0.4-2.3-1l0.8-1.2c0.5,0.5,0.9,0.7,1.3,0.7s0.5-0.2,0.5-0.6v-2.6h-2.1v-1.4h3.9v4.1
			C18.8,44.7,18,45.5,16.6,45.5z"/>
		<path fill="#FFFFFF" d="M25,39.3v1.4h-3.2v1h2.9v1.4h-2.9v1H25v1.4H20v-6.1H25z"/>
		<path fill="#FFFFFF" d="M31,39.3v1.4h-1.8v4.7h-1.8v-4.7h-1.8v-1.4H31z"/>
		<path fill="#FFFFFF" d="M33.6,39.3v4.6h2.6v1.5h-4.4v-6.1H33.6z"/>
		<path fill="#FFFFFF" d="M41.2,44.5h-2.5l-0.4,1h-1.9l2.6-6.1h1.9l2.5,6.1h-1.9L41.2,44.5z M40.7,43.1l-0.7-2l-0.7,2H40.7z"/>
		<path fill="#FFFFFF" d="M49.5,40.9c0,0.6-0.4,1.1-1,1.3c0.7,0.2,1.2,0.8,1.2,1.5c0,1-0.9,1.7-2.4,1.7h-3.1v-6.1h3
			C48.5,39.3,49.5,39.9,49.5,40.9z M47.6,41.2c0-0.3-0.2-0.5-0.6-0.5h-1.1v1H47C47.4,41.7,47.6,41.5,47.6,41.2z M47.8,43.5
			c0-0.3-0.3-0.5-0.8-0.5h-1.1v1.1H47C47.5,44.1,47.8,43.9,47.8,43.5z"/>
	</g>
	<g>
		<path fill="#FFFFFF" d="M33.7,48.1h0.2V49c-0.2,0.2-0.6,0.3-0.9,0.3c-0.7,0-1.2-0.5-1.2-1.2s0.5-1.2,1.2-1.2
			c0.3,0,0.6,0.1,0.9,0.3l-0.2,0.2c-0.2-0.2-0.5-0.3-0.7-0.3c-0.5,0-1,0.4-1,0.9c0,0.5,0.4,0.9,1,0.9c0.2,0,0.4-0.1,0.6-0.2V48.1z"
			/>
		<path fill="#FFFFFF" d="M36.1,48.7h-1.3l-0.3,0.6h-0.3l1.1-2.3h0.3l1.1,2.3h-0.3L36.1,48.7z M36,48.4l-0.5-1.2l-0.5,1.2H36z"/>
		<path fill="#FFFFFF" d="M37.5,46.9l0.9,1.7l0.9-1.7h0.3v2.3h-0.2l0-2L38.4,49h-0.2l-0.9-1.7v2h-0.3v-2.3H37.5z"/>
		<path fill="#FFFFFF" d="M41.9,46.9v0.2h-1.3v0.8h1.2v0.2h-1.2V49h1.4v0.2h-1.6v-2.3H41.9z"/>
		<path fill="#FFFFFF" d="M43.3,47.2c-0.3,0-0.5,0.1-0.5,0.3c0,0.6,1.3,0.3,1.3,1.1c0,0.4-0.3,0.6-0.8,0.6c-0.3,0-0.7-0.1-0.9-0.4
			l0.1-0.2c0.2,0.2,0.5,0.3,0.8,0.3c0.3,0,0.5-0.1,0.5-0.4c0-0.6-1.3-0.3-1.3-1.1c0-0.4,0.3-0.6,0.8-0.6c0.3,0,0.6,0.1,0.7,0.2
			l-0.1,0.2C43.7,47.2,43.4,47.2,43.3,47.2z"/>
	</g>
	<g>
		<g>
			<circle fill="#FFFFFF" cx="27.1" cy="26.5" r="1.3"/>
			<circle fill="#FFFFFF" cx="37.2" cy="26.5" r="1.3"/>
		</g>
		<g>
			<path fill="#FFFFFF" d="M38.7,20.7c-0.7-0.3-1-1-0.8-1.7l1.3-3.4c0.3-0.7,1-1,1.7-0.8c0.7,0.3,1,1,0.8,1.7l-1.3,3.4
				C40.1,20.6,39.4,21,38.7,20.7z"/>
			<path fill="#FFFFFF" d="M25.7,20.7c0.7-0.3,1-1,0.8-1.7l-1.3-3.4c-0.3-0.7-1-1-1.7-0.8c-0.7,0.3-1,1-0.8,1.7l1.3,3.4
				C24.3,20.6,25,21,25.7,20.7z"/>
		</g>
		<path fill="#FFFFFF" d="M43.4,18.3H20.9c-2.1,0-3.8,1.7-3.8,3.8V31c0,2.1,1.7,3.8,3.8,3.8h22.5c2.1,0,3.8-1.7,3.8-3.8v-8.8
			C47.3,20,45.5,18.3,43.4,18.3z M44.6,31c0,0.6-0.5,1.1-1.1,1.1H20.9c-0.6,0-1.1-0.5-1.1-1.1v-8.8c0-0.6,0.5-1.1,1.1-1.1h22.5
			c0.6,0,1.1,0.5,1.1,1.1V31z"/>
	</g>
</g>
</svg>
