<?xml version="1.0" encoding="utf-8"?>
<!-- Generator: Adobe Illustrator 18.1.1, SVG Export Plug-In . SVG Version: 6.00 Build 0)  -->
<svg version="1.1" id="Layer_1" xmlns="http://www.w3.org/2000/svg" xmlns:xlink="http://www.w3.org/1999/xlink" x="0px" y="0px"
	 viewBox="0 0 200 200" enable-background="new 0 0 200 200" xml:space="preserve">
<g>
	<defs>
		<path id="SVGID_1_" d="M30.1,40.7c23.3-2,46.6-3,69.9-3c23.3,0,46.6,1,69.9,3c11.7,1,21.2,10.8,21.2,21c0,12.8,0,25.5,0,38.3
			s0,25.5,0,38.3c0,10.2-9.5,20-21.2,21c-23.3,2-46.6,3-69.9,3c-23.3,0-46.6-1-69.9-3c-11.7-1-21.2-10.8-21.2-21
			c0-12.8,0-25.5,0-38.3s0-25.5,0-38.3C8.9,51.5,18.4,41.7,30.1,40.7"/>
	</defs>
	<clipPath id="SVGID_2_">
		<use xlink:href="#SVGID_1_"  overflow="visible"/>
	</clipPath>
	<linearGradient id="SVGID_3_" gradientUnits="userSpaceOnUse" x1="127.6842" y1="46.5199" x2="43.2642" y2="209.5999">
		<stop  offset="0" style="stop-color:#FB7070"/>
		<stop  offset="1" style="stop-color:#FD1717"/>
	</linearGradient>
	<rect x="8.9" y="37.6" clip-path="url(#SVGID_2_)" fill="url(#SVGID_3_)" width="182.2" height="124.7"/>
</g>
<polygon fill-rule="evenodd" clip-rule="evenodd" fill="#FFFFFF" points="130.9,100 103.4,115.9 76,131.7 76,100 76,68.3 
	103.4,84.1 "/>
</svg>
