<?xml version="1.0" encoding="utf-8"?>
<!-- Generator: Adobe Illustrator 18.1.1, SVG Export Plug-In . SVG Version: 6.00 Build 0)  -->
<svg version="1.1" id="Layer_1" xmlns="http://www.w3.org/2000/svg" xmlns:xlink="http://www.w3.org/1999/xlink" x="0px" y="0px"
	 viewBox="0 0 258 258" enable-background="new 0 0 258 258" xml:space="preserve">
<path fill-rule="evenodd" clip-rule="evenodd" fill="#FFFFFF" d="M207.9,92.8c-5.5,2.4-11.5,4.1-17.7,4.8c6.4-3.8,11.2-9.8,13.5-17
	c-5.9,3.5-12.5,6.1-19.6,7.5c-5.6-6-13.6-9.7-22.5-9.7c-17,0-30.8,13.8-30.8,30.8c0,2.4,0.3,4.8,0.8,7
	c-25.6-1.3-48.3-13.5-63.5-32.2c-2.6,4.5-4.2,9.8-4.2,15.5c0,10.7,5.4,20.1,13.7,25.6c-5-0.2-9.8-1.5-13.9-3.9c0,0.1,0,0.3,0,0.4
	c0,14.9,10.6,27.4,24.7,30.2c-2.6,0.7-5.3,1.1-8.1,1.1c-2,0-3.9-0.2-5.8-0.5c3.9,12.2,15.3,21.1,28.8,21.4
	c-10.5,8.3-23.8,13.2-38.2,13.2c-2.5,0-4.9-0.1-7.3-0.4c13.6,8.7,29.8,13.8,47.2,13.8c56.6,0,87.6-46.9,87.6-87.6c0-1.3,0-2.7-0.1-4
	C198.6,104.4,203.8,98.9,207.9,92.8z M257.8,129C257.8,57.9,200.1,0.2,129,0.2C57.9,0.2,0.2,57.9,0.2,129S57.9,257.8,129,257.8
	C200.1,257.8,257.8,200.1,257.8,129z"/>
</svg>
