<?xml version="1.0" encoding="utf-8"?>
<!-- Generator: Adobe Illustrator 18.1.1, SVG Export Plug-In . SVG Version: 6.00 Build 0)  -->
<svg version="1.1" id="Layer_1" xmlns="http://www.w3.org/2000/svg" xmlns:xlink="http://www.w3.org/1999/xlink" x="0px" y="0px"
	 viewBox="-368.3 128.2 258 258" enable-background="new -368.3 128.2 258 258" xml:space="preserve">
<g>
	<path fill="#FFFFFF" d="M-239.3,128.2c-71.2,0-129,57.8-129,129s57.8,129,129,129c71.2,0,129-57.8,129-129S-168,128.2-239.3,128.2z
		 M-238.4,333.1c-16,0-31-5-43.2-13.4l-26.2,7.6l6.7-27c-8.5-12.3-13.6-27.3-13.6-43.4c0-42.1,34.2-76.3,76.3-76.3
		c42.1,0,76.3,34.2,76.3,76.3C-162.1,298.9-196.2,333.1-238.4,333.1z"/>
	<path fill="#FFFFFF" d="M-198,275.8c-2.9-1.6-5.4-3.2-8.6-4.8c-2.8-1.4-6.1-3.4-9.3-2.6c-2.4,0.7-4.1,2.8-5.7,4.6
		c-2.1,2.2-4.3,4.4-6.4,6.6c0,0-27.4-10.1-34.7-30.5c1.1-1.2,2.1-2.4,3.2-3.7c1.8-2.1,4.5-4.1,4.6-7.1c0.1-2.9-0.9-5.7-1.9-8.3
		c-0.7-1.7-1.3-3.3-2-5c-1.2-3.1-2.7-7.3-4.3-9.1c-2.3-2.4-6.2-2.9-9.3-1.4c0,0-18,8.7-12.5,26c0,0,10.8,48.9,64.9,59
		c0,0,19.4,2.8,24.6-9c1.1-2.5,1.9-6.1,1.7-8.9C-193.9,278.8-195.8,277.1-198,275.8z"/>
</g>
</svg>
